<svg width="371" height="237" viewBox="0 0 371 237" fill="none" xmlns="http://www.w3.org/2000/svg">
<rect width="371" height="236.38" rx="6" fill="#F8EACF"/>
<path d="M199.64 212.37H174.23C168.92 212.37 164.34 208.57 163.3 203.43C141.58 198.32 126.47 179.28 126.46 156.9V149.05C122.37 148.81 118.56 147.1 115.63 144.18C112.48 141.01 110.74 136.81 110.74 132.34C110.74 123.12 117.84 115.27 126.46 114.7V93.89C126.46 79.14 138.46 67.14 153.21 67.14H217.78C232.53 67.14 244.53 79.14 244.53 93.89V115.66C253.3 116.18 260.26 123.47 260.26 132.36C260.26 141.25 253.29 148.53 244.53 149.05V156.9C244.53 179.18 229.52 198.18 207.93 203.38V204.09C207.93 208.66 204.21 212.38 199.64 212.38V212.37ZM127.46 116.67C119.62 116.67 112.74 124 112.74 132.35C112.74 136.28 114.27 139.98 117.05 142.76C119.83 145.54 123.53 147.07 127.46 147.07H128.46V156.89C128.46 178.55 143.24 196.94 164.39 201.62L165.07 201.77L165.17 202.46C165.79 206.96 169.69 210.36 174.24 210.36H199.65C203.12 210.36 205.94 207.54 205.94 204.07V201.76L206.72 201.59C227.8 196.87 242.53 178.49 242.54 156.88V147.06H243.55C251.67 147.06 258.27 140.46 258.27 132.34C258.27 124.55 252.2 118.16 244.54 117.64V117.74L243.41 117.6L243.47 116.61H242.54V93.87C242.54 80.22 231.44 69.12 217.79 69.12H153.21C139.56 69.12 128.46 80.22 128.46 93.87V116.65H127.46V116.67Z" fill="#885C59"/>
<path d="M243.53 148.07C252.212 148.07 259.25 141.032 259.25 132.35C259.25 123.668 252.212 116.63 243.53 116.63C234.848 116.63 227.81 123.668 227.81 132.35C227.81 141.032 234.848 148.07 243.53 148.07Z" fill="#D0776F"/>
<path d="M127.46 148.07C136.142 148.07 143.18 141.032 143.18 132.35C143.18 123.668 136.142 116.63 127.46 116.63C118.778 116.63 111.74 123.668 111.74 132.35C111.74 141.032 118.778 148.07 127.46 148.07Z" fill="#D0776F"/>
<path d="M217.78 68.14H153.21C138.99 68.14 127.46 79.67 127.46 93.89V156.9C127.46 179.28 143.18 197.99 164.17 202.61C164.86 207.56 169.09 211.38 174.23 211.38H196.75C201.89 211.38 206.13 207.56 206.81 202.61C227.81 197.99 243.52 179.29 243.52 156.9V93.89C243.52 79.67 231.99 68.14 217.77 68.14H217.78Z" fill="#FAD7C3"/>
<path d="M208.81 68.14H184.85V203.71H184.93V211.37H199.64C203.66 211.37 206.93 208.11 206.93 204.09V202.58C227.87 197.92 243.53 179.24 243.53 156.9V102.87C243.53 83.69 227.98 68.15 208.81 68.15V68.14Z" fill="#F6B19A"/>
<path d="M153.46 165.72H216.24C216.24 165.72 204.65 184.27 185.71 184.27C166.77 184.27 153.46 165.72 153.46 165.72Z" fill="white"/>
<path d="M185.71 184.77C166.74 184.77 153.19 166.2 153.05 166.01L152.48 165.22H217.14L216.66 165.98C216.54 166.17 204.7 184.76 185.71 184.76V184.77ZM154.47 166.22C157.28 169.74 169.48 183.77 185.71 183.77C201.94 183.77 212.86 169.69 215.3 166.22H154.47Z" fill="#895C57"/>
<path d="M234.45 72.43C240.3 66.67 244.79 58.8 246.48 48.02C246.48 48.02 237.22 56.23 228.6 55.82C228.6 55.82 240.62 43.71 236.2 24C236.2 24 212.18 47.71 189.08 48.64C169.8 49.41 153.72 38.42 148.28 57.88C147.18 61.82 147.23 65.25 148.14 68.25C135.74 69.42 126.03 80.23 126.03 93.4V136.64C126.03 136.64 142.18 114.86 142.18 90.94C142.18 85.25 147.82 81.08 156.27 78.46C166.22 85.25 182.06 87.34 190.01 87.45C197.13 87.55 208.56 86.67 219.34 82.22C225.49 85.13 230 88.94 231.69 93.68C231.69 93.68 220.38 130.4 245.23 142.95V93.4C245.23 84.67 240.96 76.97 234.47 72.44L234.45 72.43Z" fill="#331B1F"/>
<path d="M176.78 126.16C176.23 126.16 175.68 126.03 175.16 125.76L156.7 116.11L147.21 123.94C145.72 125.17 143.51 124.96 142.28 123.47C141.05 121.98 141.26 119.77 142.75 118.54L155.82 107.76L178.4 119.55C180.11 120.45 180.78 122.56 179.88 124.27C179.26 125.47 178.04 126.15 176.78 126.15V126.16Z" fill="#301A21"/>
<path d="M192.49 126.16C191.22 126.16 189.99 125.47 189.37 124.26C188.49 122.54 189.17 120.43 190.89 119.55L213.83 107.78L226.88 118.55C228.37 119.78 228.58 121.99 227.35 123.48C226.12 124.97 223.91 125.18 222.42 123.95L212.92 116.11L194.07 125.78C193.56 126.04 193.01 126.17 192.48 126.17L192.49 126.16Z" fill="#301A21"/>
</svg>
