<svg width="32" height="31" viewBox="0 0 32 31" fill="none" xmlns="http://www.w3.org/2000/svg">
<g clip-path="url(#clip0_31_1071)">
<path d="M31.1025 0.5H0.333252V30.5H31.1025V0.5Z" fill="#00E4BB"/>
<path d="M29.5641 2.03845H1.87183V28.9615H29.5641V2.03845Z" fill="#002620"/>
<path d="M12.3839 7.67998C12.3332 7.5769 12.3332 7.5769 12.2301 7.5769H9.51162C9.46085 7.5769 9.40855 7.5769 9.40855 7.67998C9.42449 8.02523 9.38976 8.37095 9.30547 8.70613L5.66393 21.4754C5.61316 21.6292 5.66393 21.68 5.76701 21.68H7.66547C7.81931 21.68 7.87008 21.68 7.87008 21.5769L8.89624 17.7308L12.9993 17.68L14.0762 21.5261C14.127 21.6292 14.1793 21.6292 14.2809 21.6292H16.3839C16.487 21.6292 16.487 21.5784 16.487 21.4754L12.3839 7.67998ZM9.46085 15.6292C9.97316 13.68 10.6916 11.1169 10.9485 9.62921C11.2685 11.1169 12.1285 14.1938 12.487 15.6292H9.46085Z" fill="#00E4BB"/>
<path d="M25.4624 19.5769C25.4624 19.68 25.4624 20.1415 25.5131 20.9108C25.5131 21.0138 25.4624 21.0138 25.4101 21.0646C24.1574 21.5922 22.8192 21.8878 21.4608 21.9369C20.9473 22.0002 20.426 21.9456 19.9367 21.7772C19.4475 21.6089 19.003 21.3312 18.6371 20.9653C18.2712 20.5994 17.9935 20.1549 17.8251 19.6656C17.6568 19.1763 17.6022 18.6551 17.6654 18.1415V11.4708C17.6623 11.4498 17.6642 11.4285 17.6708 11.4084C17.6774 11.3883 17.6887 11.3701 17.7036 11.3551C17.7186 11.3401 17.7368 11.3289 17.7569 11.3223C17.777 11.3156 17.7984 11.3138 17.8193 11.3169H19.7685C19.7894 11.3138 19.8108 11.3156 19.8309 11.3223C19.851 11.3289 19.8692 11.3401 19.8842 11.3551C19.8991 11.3701 19.9104 11.3883 19.917 11.4084C19.9236 11.4285 19.9255 11.4498 19.9224 11.4708V17.9323C19.9224 19.1631 20.3331 19.8292 21.6147 19.8292C22.1053 19.8374 22.5928 19.7501 23.0501 19.5723V11.3723C23.0501 11.2692 23.1008 11.2185 23.1531 11.2185H25.2562C25.2772 11.215 25.2987 11.2166 25.3189 11.2231C25.3392 11.2296 25.3576 11.2408 25.3726 11.2559C25.3877 11.2709 25.3989 11.2893 25.4054 11.3096C25.4119 11.3298 25.4135 11.3513 25.4101 11.3723L25.4608 19.5769H25.4624Z" fill="#00E4BB"/>
</g>
<defs>
<clipPath id="clip0_31_1071">
<rect width="30.7692" height="30" fill="white" transform="translate(0.333252 0.5)"/>
</clipPath>
</defs>
</svg>
