<svg width="38" height="31" viewBox="0 0 38 31" fill="none" xmlns="http://www.w3.org/2000/svg">
<g clip-path="url(#clip0_31_1105)">
<path d="M37.2699 24.3671C37.2606 25.7887 36.7564 27.1627 35.8439 28.2529C34.9314 29.343 33.6677 30.0813 32.2699 30.3407C30.8285 30.6247 29.3329 30.3722 28.0646 29.6307C26.7963 28.8892 25.8427 27.7098 25.383 26.3144C23.9829 21.8982 22.678 17.4436 21.3365 13.0073C20.8497 11.4114 20.3446 9.79718 19.9163 8.18298C19.506 6.66068 19.7037 5.0385 20.4676 3.65929C21.2315 2.28007 22.5016 1.25189 24.0097 0.792059C25.5178 0.332223 27.1456 0.476762 28.549 1.19512C29.9525 1.91349 31.0216 3.14939 31.5305 4.64162C33.4174 10.6921 35.2073 16.7811 37.021 22.8719C37.1447 23.3626 37.2279 23.8627 37.2699 24.3671ZM27.9361 6.79755C27.953 6.24642 27.7522 5.71081 27.3771 5.30663C27.002 4.90246 26.4829 4.66224 25.9321 4.63796C25.5125 4.6166 25.096 4.72087 24.736 4.93745C24.376 5.15402 24.0887 5.47306 23.911 5.85376C23.7332 6.23446 23.6731 6.65952 23.7382 7.07459C23.8033 7.48966 23.9908 7.87587 24.2765 8.18385C24.5623 8.49182 24.9335 8.70756 25.3425 8.80347C25.7516 8.89938 26.18 8.87111 26.5729 8.72227C26.9658 8.57344 27.3053 8.3108 27.5482 7.96794C27.791 7.62507 27.9261 7.21758 27.9361 6.79755Z" fill="#B62130"/>
<path d="M12.0943 0.730551C13.348 0.707052 14.5756 1.09067 15.5929 1.82387C16.6102 2.55707 17.3624 3.60032 17.7367 4.79717C19.6046 10.8477 21.4208 16.9244 23.185 23.0274C23.5915 24.5068 23.4013 26.0866 22.6552 27.4271C21.9091 28.7677 20.6668 29.7619 19.1953 30.1961C17.7213 30.6859 16.1138 30.5767 14.7196 29.8919C13.3254 29.2071 12.2563 28.0018 11.7429 26.5358C9.79681 20.4072 7.94835 14.2396 6.19749 8.03289C5.97184 7.14989 5.95537 6.2264 6.14942 5.33591C6.34346 4.44542 6.74266 3.61251 7.31524 2.90345C7.88783 2.19438 8.61799 1.62874 9.44764 1.25152C10.2773 0.874293 11.1835 0.695908 12.0943 0.730551ZM12.173 4.71847C11.8836 4.70247 11.5939 4.74444 11.3209 4.84193C11.048 4.93942 10.7972 5.09045 10.5834 5.28617C10.3697 5.48188 10.1971 5.71833 10.076 5.98164C9.95482 6.24495 9.8875 6.52981 9.87795 6.8195C9.88767 7.38923 10.1145 7.93376 10.5121 8.34191C10.9097 8.75006 11.4481 8.99106 12.0174 9.01569C12.3074 9.03311 12.5979 8.99045 12.8707 8.89038C13.1435 8.79031 13.3927 8.63498 13.6026 8.43413C13.8126 8.23328 13.9788 7.99124 14.0909 7.72316C14.2029 7.45508 14.2584 7.16675 14.2539 6.87623C14.2695 6.59511 14.227 6.31379 14.1289 6.04988C14.0307 5.78598 13.8792 5.54519 13.6836 5.34261C13.4881 5.14003 13.2528 4.98002 12.9925 4.87262C12.7323 4.76522 12.4545 4.71274 12.173 4.71847Z" fill="#F18824"/>
<path d="M5.14873 8.70642C6.85993 14.4074 8.53452 19.9326 10.1872 25.4377C10.3353 26.1327 10.5708 26.806 10.8881 27.4418C11.4134 28.2782 11.0711 28.7064 10.4416 29.1932C9.44543 29.9756 8.23098 30.4295 6.96589 30.4921C5.7008 30.5547 4.44747 30.223 3.37896 29.5428C2.34364 28.8767 1.54172 27.9044 1.08478 26.7612C0.627847 25.6181 0.53863 24.3609 0.829545 23.1647C0.908242 22.8536 0.964977 22.5424 1.06381 22.2313C2.40531 17.773 3.74865 13.3367 5.14873 8.70642Z" fill="#F18824"/>
</g>
<defs>
<clipPath id="clip0_31_1105">
<rect width="36.6032" height="30" fill="white" transform="translate(0.666748 0.5)"/>
</clipPath>
</defs>
</svg>
