<svg width="38" height="31" viewBox="0 0 38 31" fill="none" xmlns="http://www.w3.org/2000/svg">
<g clip-path="url(#clip0_31_851)">
<path d="M5.78156 21.1849L3.81871 21.9017L3.71362 27.7415L10.5104 25.2589C9.46294 24.9871 8.49184 24.4784 7.67197 23.772C6.85211 23.0657 6.20536 22.1807 5.78156 21.1849Z" fill="#FDBD39"/>
<path d="M6.81366 15.0093L0 17.4975L3.82248 21.9036L5.78533 21.1868C5.47534 20.1467 5.40684 19.0497 5.58504 17.9791C5.76325 16.9086 6.18346 15.8928 6.81366 15.0093Z" fill="#F69833"/>
<path d="M18.2717 6.57989C9.59657 9.74934 4.01015 16.2891 5.78159 21.1849L37.1965 9.70994C35.4194 4.81408 26.9469 3.41232 18.2717 6.57989Z" fill="#FECF33"/>
<path d="M24.7063 24.3168C33.3815 21.1474 38.9848 14.6377 37.1965 9.71179L5.78345 21.1868C7.5699 26.1146 16.0312 27.4844 24.7063 24.3168Z" fill="#EE6723"/>
<path d="M37.1983 9.70996L5.78528 21.1849C6.3989 22.8738 8.74644 23.7183 12.0379 23.7183C16.009 23.5893 19.9301 22.7924 23.6367 21.3613C32.3118 18.1918 38.4143 13.0577 37.1983 9.70996Z" fill="#F69833"/>
<path d="M30.9477 7.17859C26.9764 7.30832 23.0553 8.10571 19.3489 9.53736C10.6737 12.7068 4.57119 17.8372 5.78718 21.1868L37.2021 9.71185C36.5866 8.02298 34.2409 7.18042 30.9495 7.18042" fill="#FDBD39"/>
<path d="M29.21 28.053C27.6262 27.6861 26.204 26.8156 25.1567 25.5722C20.1895 20.6131 16.1422 14.8116 13.2032 8.43764C11.9947 5.56468 11.8222 3.80074 12.691 3.18337C12.892 3.04636 13.1309 2.97612 13.374 2.98259C14.0796 2.98259 15.4588 3.50801 18.0053 6.01505L18.0616 6.06948V6.14828C18.0447 6.33593 18.0297 6.51047 18.0147 6.68874L17.9865 7.04339L17.7369 6.79193C14.9916 4.02781 13.785 3.72944 13.3928 3.72944C13.2997 3.72427 13.2074 3.74788 13.1282 3.79701C12.7529 4.0616 12.7266 5.36014 13.8995 8.14303C16.7973 14.42 20.7838 20.134 25.6746 25.0205C27.8851 27.0847 28.8817 27.3061 29.2082 27.3061C29.3041 27.3112 29.3991 27.2863 29.4802 27.2348C29.878 26.9552 29.878 25.5666 28.572 22.5698L28.5119 22.4328L28.6433 22.3614C28.7747 22.2901 28.9023 22.2188 29.0186 22.1513L29.1762 22.0631L29.2494 22.2282C30.1764 24.3524 31.0433 27.0509 29.9062 27.8578C29.7007 27.995 29.4569 28.0634 29.21 28.053Z" fill="#EE6723"/>
<path d="M24.9185 24.2268L24.9053 24.3881C24.6857 27.1016 24.1079 30.363 22.6029 30.4962C22.571 30.4962 22.5408 30.4962 22.5108 30.4962C21.4881 30.4962 20.5199 29.0307 19.636 26.1408C18.6817 22.7648 18.0688 19.3015 17.8064 15.803C17.4596 12.3086 17.464 8.78811 17.8195 5.2945C18.1948 2.20011 18.9325 0.584427 19.9908 0.490601H20.0864C20.837 0.490601 21.9462 1.33128 23.089 5.24571L22.3383 5.38833C22.0478 4.31291 21.6413 3.27222 21.1261 2.28456C20.7508 1.60901 20.3755 1.23746 20.079 1.23746H20.049C19.5911 1.27874 18.923 2.38777 18.5477 5.38833C18.1983 8.82644 18.194 12.2909 18.5347 15.7299C18.7938 19.1761 19.3972 22.5878 20.336 25.9138C20.6176 26.9095 21.0098 27.8707 21.5052 28.7792C21.8693 29.4003 22.2237 29.7419 22.4996 29.7419H22.5278C22.965 29.7043 23.7926 28.5465 24.1397 24.4876L24.9185 24.2268Z" fill="#EE6723"/>
</g>
<defs>
<clipPath id="clip0_31_851">
<rect width="37.5305" height="30" fill="white" transform="translate(0 0.5)"/>
</clipPath>
</defs>
</svg>
