<svg width="32" height="31" viewBox="0 0 32 31" fill="none" xmlns="http://www.w3.org/2000/svg">
<g clip-path="url(#clip0_31_1050)">
<path d="M31.1025 0.5H0.333252V30.5H31.1025V0.5Z" fill="#00C8FF"/>
<path d="M29.5641 2.03845H1.87183V28.9615H29.5641V2.03845Z" fill="#001D26"/>
<path d="M7.92236 7.78152C7.92236 7.67844 8.12698 7.62767 8.24236 7.62767C9.06236 7.57691 10.2931 7.5769 11.5239 7.5769C15.0501 7.5769 16.447 9.52613 16.447 12.0384C16.447 15.32 14.0885 16.7046 11.1654 16.7046H10.2039V21.6277C10.207 21.6486 10.2052 21.67 10.1986 21.69C10.1919 21.7101 10.1807 21.7284 10.1657 21.7433C10.1508 21.7583 10.1325 21.7695 10.1124 21.7762C10.0923 21.7828 10.071 21.7846 10.0501 21.7815H8.02544C8.00452 21.7846 7.98315 21.7828 7.96307 21.7762C7.94298 21.7695 7.92473 21.7583 7.90977 21.7433C7.89481 21.7284 7.88357 21.7101 7.87694 21.69C7.87031 21.67 7.86848 21.6486 7.87159 21.6277L7.92236 7.78152ZM10.1654 14.6015H11.1916C12.6916 14.6015 14.1147 14.0892 14.1147 12.0369C14.1147 10.3954 13.0885 9.57537 11.3962 9.57537C10.9853 9.56058 10.5738 9.57755 10.1654 9.62614V14.6015ZM21.1916 13.0631C20.1654 13.0631 19.8577 13.5754 19.8577 13.9861C19.8577 14.3969 20.1147 14.7554 21.4608 15.4738C23.4608 16.4354 24.127 17.3708 24.127 18.7554C24.127 20.8061 22.5885 21.9354 20.4347 21.9354C19.5125 21.976 18.5951 21.7817 17.7685 21.3708C17.6654 21.32 17.6654 21.2677 17.6654 21.1661V19.2692C17.6654 19.1661 17.7162 19.1154 17.8193 19.1661C18.578 19.6733 19.4713 19.9413 20.3839 19.9354C21.4101 19.9354 21.8193 19.5246 21.8193 18.9738C21.8193 18.5123 21.4993 18.1015 20.2162 17.4354C18.4208 16.5631 17.6516 15.6923 17.6516 14.2046C17.6653 13.7677 17.7698 13.3384 17.9585 12.9441C18.1473 12.5498 18.4161 12.1991 18.7478 11.9145C19.0795 11.6298 19.4669 11.4173 19.8853 11.2906C20.3036 11.1639 20.7438 11.1257 21.1777 11.1784C21.963 11.1465 22.7469 11.2683 23.4854 11.5369C23.51 11.5459 23.5323 11.5599 23.551 11.5781C23.5698 11.5963 23.5845 11.6182 23.5942 11.6424C23.6039 11.6666 23.6085 11.6926 23.6075 11.7187C23.6065 11.7448 23.6 11.7704 23.5885 11.7938V13.5369C23.5885 13.64 23.5377 13.6908 23.3839 13.64C22.7148 13.2736 21.9666 13.0755 21.2039 13.0631H21.1916Z" fill="#00C8FF"/>
</g>
<defs>
<clipPath id="clip0_31_1050">
<rect width="30.7692" height="30" fill="white" transform="translate(0.333252 0.5)"/>
</clipPath>
</defs>
</svg>
