<svg width="32" height="31" viewBox="0 0 32 31" fill="none" xmlns="http://www.w3.org/2000/svg">
<g clip-path="url(#clip0_31_1098)">
<path d="M31.436 0.5H0.666748V30.5H31.436V0.5Z" fill="#EA77FF"/>
<path d="M29.8976 2.03845H2.20532V28.9615H29.8976V2.03845Z" fill="#261300"/>
<path d="M8.71754 7.62771C8.71754 7.52463 8.71754 7.47386 8.82062 7.47386C9.64062 7.42309 10.8714 7.4231 12.1022 7.4231C15.6283 7.4231 17.1791 9.37233 17.1791 11.8846C17.1791 15.1662 14.8206 16.5508 11.9483 16.5508H10.9868V21.4739C10.9899 21.4948 10.9881 21.5161 10.9814 21.5362C10.9748 21.5563 10.9636 21.5746 10.9486 21.5895C10.9336 21.6045 10.9154 21.6157 10.8953 21.6224C10.8752 21.629 10.8538 21.6308 10.8329 21.6277H8.87139C8.85046 21.6308 8.8291 21.629 8.80902 21.6224C8.78893 21.6157 8.77068 21.6045 8.75572 21.5895C8.74076 21.5746 8.72952 21.5563 8.72289 21.5362C8.71626 21.5161 8.71443 21.4948 8.71754 21.4739V7.62771ZM11.0252 14.4477H12.0514C13.5391 14.4477 14.9745 13.9354 14.9745 11.8831C14.9745 10.2416 13.9483 9.42156 12.256 9.42156C11.8451 9.40677 11.4336 9.42375 11.0252 9.47232V14.4477ZM19.2298 13.2677C19.2298 13.1139 19.2298 12.7554 19.1791 12.0369C19.1791 11.9339 19.1791 11.9339 19.2822 11.8831C20.7721 11.313 22.353 11.0174 23.9483 11.0108C24.0514 11.0108 24.1022 11.0108 24.1022 11.1139V12.96C24.1022 13.0631 24.0514 13.0631 23.9483 13.0631C23.1361 13.0187 22.3221 13.1054 21.5375 13.32V21.3708C21.541 21.3918 21.5394 21.4133 21.5329 21.4335C21.5264 21.4538 21.5152 21.4722 21.5001 21.4872C21.4851 21.5023 21.4667 21.5135 21.4464 21.52C21.4262 21.5265 21.4047 21.5281 21.3837 21.5246H19.3837C19.3628 21.5278 19.3414 21.5259 19.3213 21.5193C19.3012 21.5127 19.283 21.5014 19.268 21.4865C19.2531 21.4715 19.2418 21.4532 19.2352 21.4332C19.2286 21.4131 19.2267 21.3917 19.2298 21.3708V13.2677Z" fill="#EA77FF"/>
</g>
<defs>
<clipPath id="clip0_31_1098">
<rect width="30.7692" height="30" fill="white" transform="translate(0.666748 0.5)"/>
</clipPath>
</defs>
</svg>
