<svg width="30" height="31" viewBox="0 0 30 31" fill="none" xmlns="http://www.w3.org/2000/svg">
<g clip-path="url(#clip0_31_738)">
<path d="M9.99927 30.5C11.325 30.4992 12.5962 29.9722 13.5336 29.0348C14.471 28.0974 14.998 26.8262 14.9988 25.5005V20.4995H9.99927C8.67312 20.4995 7.40129 21.0263 6.46356 21.9641C5.52583 22.9018 4.99902 24.1736 4.99902 25.4998C4.99902 26.8259 5.52583 28.0977 6.46356 29.0355C7.40129 29.9732 8.67312 30.5 9.99927 30.5Z" fill="#0ACF83"/>
<path d="M5 15.5C5.00079 14.1743 5.52778 12.9031 6.4652 11.9657C7.40261 11.0283 8.67379 10.5013 9.9995 10.5005H15.0005V20.501H9.9995C8.67353 20.5002 7.40213 19.973 6.46467 19.0353C5.52721 18.0975 5.0004 16.826 5 15.5Z" fill="#A259FF"/>
<path d="M5 5.4995C5.00079 4.17379 5.52778 2.90261 6.4652 1.9652C7.40261 1.02778 8.67379 0.500795 9.9995 0.5L15.0005 0.5V10.5005H9.9995C8.67353 10.4997 7.40213 9.97251 6.46467 9.03477C5.52721 8.09703 5.0004 6.82547 5 5.4995Z" fill="#F24E1E"/>
<path d="M15.0005 0.5H20C20.6566 0.5 21.3068 0.629335 21.9135 0.880621C22.5202 1.13191 23.0714 1.50022 23.5357 1.96454C24 2.42886 24.3683 2.98008 24.6196 3.58674C24.8709 4.1934 25.0002 4.84361 25.0002 5.50025C25.0002 6.15689 24.8709 6.8071 24.6196 7.41376C24.3683 8.02042 24 8.57164 23.5357 9.03596C23.0714 9.50028 22.5202 9.86859 21.9135 10.1199C21.3068 10.3712 20.6566 10.5005 20 10.5005H15.0005V0.5Z" fill="#FF7262"/>
<path d="M25.001 15.5C25.001 16.4887 24.7078 17.4553 24.1585 18.2774C23.6092 19.0995 22.8285 19.7403 21.915 20.1188C21.0016 20.4972 19.9964 20.5963 19.0267 20.4035C18.0569 20.2107 17.1661 19.7347 16.4668 19.0357C15.7676 18.3367 15.2913 17.446 15.0982 16.4763C14.9051 15.5066 15.0039 14.5014 15.3821 13.5878C15.7603 12.6742 16.4008 11.8933 17.2228 11.3438C18.0448 10.7942 19.0112 10.5008 20 10.5005C21.3259 10.5009 22.5975 11.0277 23.5352 11.9652C24.473 12.9026 25.0002 14.174 25.001 15.5Z" fill="#1ABCFE"/>
</g>
<defs>
<clipPath id="clip0_31_738">
<rect width="30" height="30" fill="white" transform="translate(0 0.5)"/>
</clipPath>
</defs>
</svg>
