<svg width="32" height="31" viewBox="0 0 32 31" fill="none" xmlns="http://www.w3.org/2000/svg">
<g clip-path="url(#clip0_31_1057)">
<path d="M31.1025 0.5H0.333252V30.5H31.1025V0.5Z" fill="#D291FF"/>
<path d="M29.5641 2.03845H1.87183V28.9615H29.5641V2.03845Z" fill="#1F0040"/>
<path d="M9.05022 17.7308L8.02406 21.5769C8.02406 21.68 7.9733 21.7308 7.81945 21.7308H5.92252C5.81945 21.7308 5.76868 21.68 5.81945 21.5262L9.46099 8.8077C9.54126 8.47182 9.57593 8.12667 9.56406 7.78154C9.56406 7.67847 9.61483 7.67847 9.66714 7.67847H12.3271C12.4302 7.67847 12.4302 7.67847 12.481 7.78154L16.5841 21.5631C16.5841 21.6662 16.5841 21.7169 16.481 21.7169H14.3841C14.3444 21.7161 14.3055 21.7064 14.2701 21.6885C14.2347 21.6707 14.2037 21.6452 14.1794 21.6139L13.1533 17.7292L9.05022 17.7308ZM12.6348 15.68C12.2764 14.2446 11.4041 11.1677 11.0964 9.62924C10.8394 11.1169 10.1348 13.68 9.60868 15.68H12.6348ZM19.5071 16.9615C19.4544 17.3445 19.4884 17.7344 19.6066 18.1024C19.7248 18.4704 19.9242 18.8072 20.1901 19.0878C20.4559 19.3685 20.7814 19.5858 21.1425 19.7237C21.5037 19.8616 21.8911 19.9166 22.2764 19.8846C22.9947 19.9056 23.7086 19.7652 24.3656 19.4739C24.4687 19.4231 24.5194 19.4739 24.5194 19.5769V21.18C24.5176 21.2754 24.4809 21.3667 24.4164 21.4369C23.6112 21.7952 22.7313 21.9535 21.8518 21.8985C18.4671 21.8985 17.1856 19.3862 17.1856 16.6169C17.1856 13.5908 18.7887 11.1292 21.4933 11.1292C22.0279 11.1365 22.555 11.2555 23.0408 11.4786C23.5267 11.7017 23.9604 12.0241 24.3143 12.4248C24.6681 12.8256 24.9341 13.296 25.0953 13.8057C25.2565 14.3155 25.3093 14.8533 25.2502 15.3846C25.2594 15.8315 25.2249 16.2783 25.1471 16.7185C25.1453 16.7517 25.1313 16.7832 25.1077 16.8067C25.0841 16.8303 25.0527 16.8443 25.0194 16.8462C24.3048 16.9314 23.5851 16.9659 22.8656 16.9492L19.5071 16.9615ZM22.1225 15.2185H23.0964V15.0139C23.0964 14.2831 22.7502 13.0015 21.4164 13.0015C20.1856 13.0015 19.6733 14.0785 19.5194 15.2062L22.1225 15.2185Z" fill="#D291FF"/>
</g>
<defs>
<clipPath id="clip0_31_1057">
<rect width="30.7692" height="30" fill="white" transform="translate(0.333252 0.5)"/>
</clipPath>
</defs>
</svg>
