<svg width="32" height="31" viewBox="0 0 32 31" fill="none" xmlns="http://www.w3.org/2000/svg">
<g clip-path="url(#clip0_31_1043)">
<path d="M31.1025 0.5H0.333252V30.5H31.1025V0.5Z" fill="#FF7C00"/>
<path d="M29.5641 2.03845H1.87183V28.9615H29.5641V2.03845Z" fill="#261300"/>
<path d="M10.9994 17.7308L9.97328 21.577C9.97328 21.68 9.92251 21.7308 9.76867 21.7308H7.87174C7.76867 21.7308 7.7179 21.6801 7.76867 21.5262L11.4102 8.75697C11.493 8.40429 11.5277 8.04203 11.5133 7.68005C11.5133 7.57697 11.5641 7.57697 11.6164 7.57697H14.2825C14.3856 7.57697 14.3856 7.57697 14.4364 7.68005L18.5394 21.5262C18.5394 21.6293 18.5394 21.6801 18.4364 21.6801H16.3333C16.2302 21.6801 16.1794 21.68 16.1287 21.577L15.0517 17.7308H10.9994ZM14.5887 15.68C14.2302 14.2447 13.3579 11.1677 13.0502 9.62928C12.7933 11.117 12.0887 13.68 11.5625 15.68H14.5887ZM20.3317 8.55236C20.3257 8.37348 20.3556 8.19522 20.4199 8.02818C20.4842 7.86113 20.5814 7.70873 20.7058 7.58004C20.8302 7.45136 20.9792 7.34902 21.1439 7.27913C21.3087 7.20924 21.4858 7.17322 21.6648 7.17322C21.8438 7.17322 22.0209 7.20924 22.1857 7.27913C22.3505 7.34902 22.4995 7.45136 22.6239 7.58004C22.7483 7.70873 22.8455 7.86113 22.9097 8.02818C22.974 8.19522 23.004 8.37348 22.9979 8.55236C23.0136 8.73148 22.99 8.91188 22.9285 9.08086C22.867 9.24984 22.7693 9.4033 22.6421 9.53045C22.515 9.6576 22.3615 9.75534 22.1925 9.8168C22.0236 9.87827 21.8432 9.90195 21.6641 9.8862C21.4876 9.89133 21.312 9.86031 21.1481 9.79505C20.9841 9.72979 20.8352 9.63167 20.7105 9.50673C20.5859 9.38179 20.4881 9.23268 20.4232 9.06855C20.3584 8.90442 20.3262 8.72876 20.3317 8.55236ZM20.4856 11.4754C20.4821 11.4544 20.4837 11.4329 20.4902 11.4127C20.4967 11.3924 20.508 11.374 20.523 11.359C20.538 11.344 20.5564 11.3327 20.5767 11.3262C20.5969 11.3197 20.6185 11.3181 20.6394 11.3216H22.6394C22.6604 11.3185 22.6817 11.3203 22.7018 11.3269C22.7219 11.3336 22.7401 11.3448 22.7551 11.3598C22.7701 11.3747 22.7813 11.393 22.7879 11.4131C22.7946 11.4332 22.7964 11.4545 22.7933 11.4754V21.5785C22.7933 21.6816 22.7933 21.7324 22.6394 21.7324H20.6394C20.6185 21.7355 20.5972 21.7336 20.5771 21.727C20.557 21.7204 20.5387 21.7091 20.5238 21.6942C20.5088 21.6792 20.4976 21.661 20.4909 21.6409C20.4843 21.6208 20.4825 21.5994 20.4856 21.5785V11.4754Z" fill="#FF7C00"/>
</g>
<defs>
<clipPath id="clip0_31_1043">
<rect width="30.7692" height="30" fill="white" transform="translate(0.333252 0.5)"/>
</clipPath>
</defs>
</svg>
