<svg width="31" height="31" viewBox="0 0 31 31" fill="none" xmlns="http://www.w3.org/2000/svg">
<g clip-path="url(#clip0_31_835)">
<path d="M30.7692 0.5H0V30.5H30.7692V0.5Z" fill="#FF26BE"/>
<path d="M29.2308 2.03845H1.53845V28.9615H29.2308V2.03845Z" fill="#2E001F"/>
<path d="M12.2308 14.5646L15.8231 21.5261C15.8877 21.6292 15.8493 21.7308 15.7462 21.7308H13.5C13.4429 21.7385 13.3848 21.7262 13.3357 21.6959C13.2866 21.6656 13.2495 21.6192 13.2308 21.5646C12.4103 19.8723 11.5728 18.1159 10.7185 16.2954H10.7062C9.93695 18.0138 9.1031 19.8846 8.2708 21.5769C8.25037 21.6205 8.21763 21.6571 8.17662 21.6822C8.1356 21.7074 8.08812 21.72 8.04003 21.7184H5.9108C5.7831 21.7184 5.76926 21.6154 5.83387 21.5384L9.36156 14.7815L5.96157 8.05075C5.94487 8.03453 5.93363 8.01351 5.9294 7.99061C5.92517 7.96771 5.92816 7.94407 5.93796 7.92295C5.94777 7.90183 5.96389 7.88427 5.9841 7.87272C6.00432 7.86116 6.02762 7.85617 6.05079 7.85845H8.25541C8.3831 7.85845 8.44772 7.8846 8.48618 7.99998C9.29387 9.71844 10.1016 11.3969 10.8708 13.1154H10.9C11.6431 11.4231 12.4646 9.71845 13.2462 8.03845C13.3108 7.93537 13.3493 7.87229 13.477 7.87229H15.5416C15.6446 7.87229 15.6831 7.94921 15.6185 8.0646L12.2308 14.5646ZM16.6031 16.6415C16.5533 15.9507 16.6486 15.2572 16.8828 14.6054C17.1171 13.9536 17.4851 13.3581 17.9633 12.8571C18.4414 12.356 19.0191 11.9606 19.6592 11.6961C20.2993 11.4317 20.9877 11.3041 21.68 11.3215C21.9024 11.3172 22.1248 11.326 22.3462 11.3477V8.01229C22.3462 7.97843 22.3596 7.94595 22.3836 7.922C22.4075 7.89805 22.44 7.8846 22.4739 7.8846H24.5385C24.6416 7.8846 24.6662 7.92306 24.6662 7.98768V19.7061C24.6588 20.1261 24.6804 20.5461 24.7308 20.9631C24.7308 21.0523 24.7308 21.0661 24.6539 21.1046C23.6289 21.5931 22.5078 21.847 21.3723 21.8477C18.5923 21.8461 16.6031 20.1277 16.6031 16.6415ZM22.3462 13.36C22.1106 13.2642 21.8571 13.2207 21.6031 13.2323C20 13.2323 18.9108 14.4754 18.9108 16.54C18.9108 18.8984 20.0139 19.8477 21.4493 19.8477C21.7504 19.856 22.0504 19.808 22.3339 19.7061V13.3584L22.3462 13.36Z" fill="#FF26BE"/>
</g>
<defs>
<clipPath id="clip0_31_835">
<rect width="30.7692" height="30" fill="white" transform="translate(0 0.5)"/>
</clipPath>
</defs>
</svg>
