<svg width="32" height="31" viewBox="0 0 32 31" fill="none" xmlns="http://www.w3.org/2000/svg">
<g clip-path="url(#clip0_31_1064)">
<path d="M31.1025 0.5H0.333252V30.5H31.1025V0.5Z" fill="#FF3F94"/>
<path d="M29.5641 2.03845H1.87183V28.9615H29.5641V2.03845Z" fill="#2E0013"/>
<path d="M22.124 19.7262V7.7262C22.124 7.67543 22.124 7.62312 22.0209 7.62312H19.9225C19.8956 7.6246 19.8702 7.63593 19.8512 7.65495C19.8322 7.67397 19.8209 7.69934 19.8194 7.7262V11.1108H19.1533C18.4404 11.0929 17.7316 11.2229 17.0716 11.4926C16.4115 11.7624 15.8145 12.166 15.3183 12.678C14.822 13.19 14.4373 13.7993 14.1883 14.4675C13.9393 15.1356 13.8315 15.8481 13.8717 16.56C13.8717 20.1493 15.9225 21.8939 18.744 21.8939C19.9133 21.8739 21.0651 21.6071 22.124 21.1108C22.2271 21.06 22.2271 21.06 22.2271 20.957C22.1459 20.552 22.1114 20.139 22.124 19.7262ZM19.7656 19.7262C19.4693 19.8312 19.1568 19.8832 18.8425 19.88C17.3548 19.88 16.1763 18.9185 16.1763 16.4954C16.1763 14.3924 17.3563 13.1108 18.9963 13.1108C19.256 13.1128 19.5145 13.1475 19.7656 13.2139V19.7262ZM11.4071 7.62312H9.4071C9.38611 7.61966 9.36461 7.62125 9.34436 7.62776C9.32411 7.63426 9.30571 7.6455 9.29067 7.66054C9.27563 7.67558 9.26439 7.69399 9.25789 7.71423C9.25138 7.73448 9.24979 7.75599 9.25325 7.77697V21.52C9.25013 21.541 9.25197 21.5623 9.2586 21.5824C9.26523 21.6025 9.27647 21.6208 9.29143 21.6357C9.30638 21.6507 9.32464 21.6619 9.34473 21.6685C9.36481 21.6752 9.38617 21.677 9.4071 21.6739H11.3548C11.5086 21.6739 11.5086 21.6231 11.5086 21.52V7.78159C11.5517 7.67851 11.5517 7.62774 11.4102 7.62774L11.4071 7.62312Z" fill="#FF3F94"/>
</g>
<defs>
<clipPath id="clip0_31_1064">
<rect width="30.7692" height="30" fill="white" transform="translate(0.333252 0.5)"/>
</clipPath>
</defs>
</svg>
